<svg id="svg" version="1.1" xmlns="http://www.w3.org/2000/svg" xmlns:xlink="http://www.w3.org/1999/xlink" width="400" height="400" viewBox="0, 0, 400, 400">
    <!--<rect width="400" height="400" fill="black" />-->
    <g id="svgg">
        <path id="path0" d="M193.667 68.114 C 156.108 70.254,123.168 90.419,103.459 123.333 C 83.507 156.654,83.337 201.317,103.035 234.750 C 121.787 266.579,151.893 286.214,188.250 290.327 C 189.900 290.514,191.498 290.667,191.801 290.667 C 192.309 290.667,192.380 290.735,192.713 291.542 C 201.740 313.441,237.312 328.438,287.917 331.679 C 289.475 331.779,295.419 331.901,301.125 331.950 L 311.500 332.041 311.500 323.044 L 311.500 314.048 303.208 313.934 C 292.052 313.782,285.736 313.477,278.500 312.741 C 250.163 309.860,225.322 301.612,214.642 291.537 C 213.216 290.191,213.199 290.254,215.042 290.010 C 255.078 284.699,288.955 258.014,304.131 219.833 C 316.234 189.382,313.258 151.269,296.614 123.583 C 274.265 86.407,235.853 65.710,193.667 68.114 M209.083 86.490 C 224.423 88.002,238.130 92.797,250.458 100.963 L 252.333 102.206 252.333 179.525 L 252.333 256.845 250.208 258.231 C 219.876 278.022,179.918 277.938,149.375 258.020 L 147.500 256.797 147.502 179.524 L 147.504 102.250 149.710 100.809 C 166.879 89.599,188.271 84.440,209.083 86.490 M129.326 179.542 L 129.320 240.417 128.639 239.667 C 103.425 211.883,99.299 165.472,119.120 132.583 C 121.945 127.895,128.679 118.667,129.274 118.667 C 129.307 118.667,129.330 146.060,129.326 179.542 M272.022 120.217 C 286.386 137.533,293.250 156.675,293.250 179.417 C 293.250 200.467,287.454 218.324,275.344 234.583 C 273.602 236.922,270.903 240.215,270.654 240.306 C 270.560 240.339,270.500 216.558,270.500 179.514 C 270.500 146.048,270.556 118.671,270.625 118.675 C 270.694 118.680,271.322 119.374,272.022 120.217 " stroke="none" fill="#ffffff" fill-rule="evenodd"></path>
    </g>
</svg>
